<svg width="59" height="112" viewBox="0 0 59 112" fill="none" xmlns="http://www.w3.org/2000/svg">
<mask id="mask0_899_9905" style="mask-type:luminance" maskUnits="userSpaceOnUse" x="0" y="0" width="59" height="112">
<path d="M59 0H0V112H59V0Z" fill="white"></path>
</mask>
<g mask="url(#mask0_899_9905)">
<path d="M57.373 31.8878V39.8548C55.1151 42.079 53.5618 44.9185 52.9067 48.0194C52.2516 51.1203 52.5236 54.3455 53.689 57.2928L57.373 66.6118V98.2768L53.553 105.177C52.6823 106.752 51.4057 108.065 49.8559 108.979C48.306 109.894 46.5395 110.376 44.74 110.377H11.7C10.3757 110.376 9.06468 110.114 7.84174 109.606C6.61879 109.098 5.50789 108.354 4.57248 107.416C3.63708 106.479 2.8955 105.367 2.3901 104.143C1.8847 102.919 1.62538 101.607 1.62696 100.283V62.6098C1.62605 57.8034 2.62657 53.0495 4.56472 48.6511C6.50288 44.2528 9.33616 40.3065 12.884 37.0638L28.438 22.8508H48.346L57.373 31.8878Z" stroke="black" stroke-width="3.256" stroke-linecap="round" stroke-linejoin="round"></path>
<path d="M44.0024 43.0569L3.02539 52.8719" stroke="black" stroke-width="3.256" stroke-linecap="round" stroke-linejoin="round"></path>
<path d="M21.0492 71.6788C18.2492 77.6948 22.1912 84.9048 28.8072 85.3528C29.0359 85.3682 29.2669 85.3758 29.5002 85.3758C29.7335 85.3758 29.9645 85.3682 30.1932 85.3528C36.8102 84.9048 40.7552 77.6948 37.9512 71.6788L29.6622 55.5378H29.3382L24.9002 64.1748L21.0492 71.6788Z" stroke="black" stroke-width="3.256" stroke-linecap="round" stroke-linejoin="round"></path>
<path d="M57.373 98.2769L14.627 103.885" stroke="black" stroke-width="3.256" stroke-linecap="round" stroke-linejoin="round"></path>
<path d="M46.0195 11.377V18.197" stroke="black" stroke-width="3.257" stroke-linecap="round" stroke-linejoin="round"></path>
<path d="M26.1758 10.9119V4.38491C26.1755 4.02316 26.2465 3.66491 26.3847 3.33061C26.523 2.99632 26.7257 2.69253 26.9813 2.43659C27.237 2.18066 27.5406 1.97761 27.8747 1.83902C28.2089 1.70044 28.567 1.62904 28.9288 1.62891H47.8998C48.2615 1.62904 48.6197 1.70044 48.9538 1.83902C49.288 1.97761 49.5916 2.18066 49.8472 2.43659C50.1029 2.69253 50.3056 2.99632 50.4438 3.33061C50.582 3.66491 50.653 4.02316 50.6528 4.38491V10.9119H26.1758Z" stroke="black" stroke-width="3.256" stroke-linecap="round" stroke-linejoin="round"></path>
<path d="M30.8086 18.197V11.377" stroke="black" stroke-width="3.257" stroke-linecap="round" stroke-linejoin="round"></path>
</g>
</svg>
