<svg width="115" height="103" viewBox="0 0 115 103" fill="none" xmlns="http://www.w3.org/2000/svg">
<mask id="mask0_899_9925" style="mask-type:luminance" maskUnits="userSpaceOnUse" x="0" y="0" width="115" height="103">
<path d="M115 0H0V103H115V0Z" fill="white"></path>
</mask>
<g mask="url(#mask0_899_9925)">
<path d="M84.6273 63.1929L66.9273 73.2439C65.994 73.7736 64.9454 74.0673 63.8728 74.0996C62.8001 74.1318 61.7358 73.9016 60.7723 73.4289L23.5303 55.1529C22.7811 54.7856 21.9443 54.6346 21.114 54.717C20.2837 54.7993 19.4928 55.1117 18.8303 55.6189L14.9423 58.5999C14.5647 58.8895 14.1313 59.0979 13.6694 59.2121C13.2074 59.3262 12.7268 59.3437 12.2578 59.2633C11.7888 59.1829 11.3414 59.0065 10.9438 58.745C10.5462 58.4835 10.207 58.1427 9.94732 57.7439L7.74132 54.3439C7.29386 53.6541 7.10984 52.8261 7.22297 52.0117C7.33609 51.1972 7.73879 50.4507 8.35732 49.9089L13.8313 45.1089C14.9504 44.1282 16.3805 43.5752 17.8683 43.5479L49.6573 42.9649C50.0826 42.9588 50.4989 42.8418 50.8652 42.6256C51.2314 42.4095 51.535 42.1015 51.7459 41.7322C51.9568 41.3629 52.0678 40.9449 52.0679 40.5196C52.0679 40.0943 51.9571 39.6763 51.7463 39.3069C51.5866 39.0278 51.4836 38.7199 51.4433 38.4008C51.403 38.0818 51.4261 37.7579 51.5113 37.4479C51.5965 37.1378 51.7421 36.8476 51.9398 36.5939C52.1375 36.3403 52.3834 36.1283 52.6633 35.9699L76.4853 22.4449L89.9403 3.32894C90.5547 2.45831 91.4894 1.867 92.5393 1.68477C93.5892 1.50254 94.6685 1.74428 95.5403 2.35694L111.667 13.6789C112.327 14.141 112.832 14.792 113.114 15.5464C113.397 16.3008 113.444 17.1231 113.25 17.9049L105.53 48.9879C105.316 49.8491 104.929 50.6576 104.392 51.3643C103.855 52.0711 103.18 52.6612 102.408 53.0989L84.6273 63.1929Z" stroke="black" stroke-width="3.261" stroke-linecap="round" stroke-linejoin="round"></path>
<path d="M86.1941 26.1398L93.9941 39.7568C94.233 40.1724 94.5913 40.5067 95.0225 40.7161C95.4537 40.9255 95.938 41.0005 96.4123 40.9313C96.8867 40.8621 97.3293 40.6519 97.6827 40.328C98.0361 40.004 98.2839 39.5814 98.3941 39.1148L102.87 19.8398C102.971 19.4064 102.947 18.9534 102.802 18.5327C102.657 18.112 102.397 17.7406 102.051 17.4608L96.3351 12.8268C96.0734 12.6149 95.7698 12.4606 95.4444 12.3741C95.1189 12.2875 94.7788 12.2706 94.4464 12.3245C94.114 12.3784 93.7966 12.5019 93.5152 12.6868C93.2337 12.8718 92.9945 13.1141 92.8131 13.3978L86.2521 23.6898C86.0199 24.0541 85.8917 24.4749 85.8815 24.9067C85.8713 25.3386 85.9794 25.765 86.1941 26.1398Z" stroke="black" stroke-width="3.261" stroke-linecap="round" stroke-linejoin="round"></path>
<path d="M67.3979 21.7329L69.7789 25.8919" stroke="black" stroke-width="3.261" stroke-linecap="round" stroke-linejoin="round"></path>
<path d="M58.8742 32.084L56.4932 27.925" stroke="black" stroke-width="3.261" stroke-linecap="round" stroke-linejoin="round"></path>
<path d="M70.2941 15.1439L49.3251 27.0499L46.6601 22.3999C46.4695 22.0662 46.3468 21.6983 46.299 21.3171C46.2512 20.9359 46.2792 20.549 46.3815 20.1786C46.4837 19.8083 46.6581 19.4618 46.8947 19.1591C47.1313 18.8564 47.4254 18.6035 47.7601 18.4149L63.6281 9.39986C64.3037 9.01633 65.1036 8.91579 65.8531 9.12022C66.6026 9.32465 67.2407 9.81742 67.6281 10.4909L70.2941 15.1439Z" stroke="black" stroke-width="3.261" stroke-linecap="round" stroke-linejoin="round"></path>
<path d="M2.55217 87.6889C-0.263826 93.6999 3.70017 100.9 10.3432 101.35C10.5725 101.365 10.8058 101.373 11.0432 101.373C11.2805 101.373 11.5138 101.365 11.7432 101.35C18.3882 100.902 22.3502 93.6999 19.5342 87.6889L11.2002 71.5649H10.8742L6.42217 80.1929L2.55217 87.6889Z" stroke="black" stroke-width="3.261" stroke-linecap="round" stroke-linejoin="round"></path>
</g>
</svg>
