<svg width="52" height="52" viewBox="0 0 52 52" fill="none" xmlns="http://www.w3.org/2000/svg">
<path d="M26.1295 52C40.4116 52 51.9895 40.3594 51.9895 26C51.9895 11.6406 40.4116 0 26.1295 0C11.8474 0 0.269531 11.6406 0.269531 26C0.269531 40.3594 11.8474 52 26.1295 52Z" fill="black"/>
<path d="M30.5 25.6739L22.8828 17.8399C22.7361 17.6924 22.6195 17.5179 22.5391 17.326C22.4581 17.1323 22.415 16.9248 22.4121 16.7149C22.412 16.5052 22.4512 16.2974 22.5273 16.102C22.6053 15.9087 22.72 15.7324 22.8652 15.583C23.007 15.4353 23.1771 15.3177 23.3652 15.237C23.5551 15.1571 23.7589 15.1169 23.9648 15.119C24.1688 15.1208 24.3701 15.1643 24.5566 15.2469C24.7458 15.3298 24.916 15.4508 25.0566 15.602L33.7617 24.555C34.0525 24.8551 34.2148 25.2566 34.2148 25.6745C34.2148 26.0924 34.0525 26.4938 33.7617 26.7939L25.0566 35.7469C24.9162 35.8984 24.746 36.0194 24.5566 36.102C24.3702 36.185 24.1689 36.2285 23.9648 36.2299C23.7589 36.2325 23.5551 36.1928 23.3652 36.113C23.1771 36.0323 23.0071 35.9146 22.8652 35.7669C22.7199 35.6171 22.6052 35.4405 22.5273 35.2469C22.4511 35.0512 22.4119 34.843 22.4121 34.633C22.415 34.4234 22.458 34.2162 22.5391 34.0229C22.6192 33.8308 22.7358 33.6563 22.8828 33.509L30.5 25.6739Z" fill="white"/>
</svg>
