<svg width="52" height="52" viewBox="0 0 52 52" fill="none" xmlns="http://www.w3.org/2000/svg">
<path d="M26.13 52C40.4121 52 51.99 40.3594 51.99 26C51.99 11.6406 40.4121 0 26.13 0C11.8479 0 0.27002 11.6406 0.27002 26C0.27002 40.3594 11.8479 52 26.13 52Z" fill="white"/>
<path d="M30.5001 25.6736L22.8829 17.8396C22.5843 17.5412 22.416 17.1368 22.4142 16.7146C22.4091 16.2927 22.5705 15.886 22.8639 15.5828C23.0076 15.4348 23.1796 15.3167 23.3693 15.2356C23.6544 15.1173 23.9689 15.0892 24.2706 15.1546C24.5723 15.22 24.8468 15.376 25.0573 15.6018L33.7643 24.5559C34.052 24.8575 34.2125 25.2579 34.2125 25.6746C34.2125 26.0913 34.052 26.4922 33.7643 26.7937L25.0573 35.7478C24.9167 35.899 24.7465 36.0195 24.5573 36.1018C24.371 36.1851 24.1691 36.2287 23.965 36.2298C23.7591 36.2322 23.5553 36.1922 23.3654 36.1126C23.1758 36.0319 23.0037 35.9145 22.86 35.7669C22.5664 35.4634 22.4049 35.0558 22.4103 34.6336C22.4123 34.2117 22.5806 33.8077 22.879 33.5096L30.5001 25.6736Z" fill="black"/>
</svg>
