<svg width="52" height="53" viewBox="0 0 52 53" fill="none" xmlns="http://www.w3.org/2000/svg">
<path d="M26.0902 52.3499C40.3668 52.3499 51.9402 40.7765 51.9402 26.4999C51.9402 12.2233 40.3668 0.649902 26.0902 0.649902C11.8137 0.649902 0.240234 12.2233 0.240234 26.4999C0.240234 40.7765 11.8137 52.3499 26.0902 52.3499Z" fill="#E5E5E5"/>
<path d="M21.7258 26.1762L29.3408 18.3892C29.6375 18.0927 29.8059 17.6915 29.8098 17.2721C29.8125 17.0629 29.7737 16.8553 29.6958 16.6612C29.6187 16.4686 29.504 16.2932 29.3586 16.1452C29.2158 15.9982 29.0447 15.8815 28.8557 15.8023C28.6667 15.7231 28.4637 15.6829 28.2588 15.6841C28.0538 15.6865 27.8514 15.7304 27.6638 15.8131C27.4752 15.8957 27.3052 16.0155 27.1638 16.1652L18.4636 25.0651C18.1749 25.3635 18.0137 25.7625 18.0137 26.1776C18.0137 26.5928 18.1749 26.9918 18.4636 27.2902L27.1638 36.1901C27.3052 36.34 27.4752 36.4601 27.6638 36.5431C27.8513 36.6253 28.0536 36.6686 28.2583 36.6703C28.463 36.672 28.6659 36.6321 28.8547 36.5531C29.0426 36.4733 29.2126 36.3567 29.3547 36.2101C29.5003 36.0623 29.6148 35.8868 29.6917 35.6941C29.7694 35.5003 29.8082 35.293 29.8057 35.0841C29.802 34.6644 29.6336 34.2628 29.3367 33.9661L21.7258 26.1762Z" fill="black"/>
</svg>
