<svg width="53" height="52" viewBox="0 0 53 52" fill="none" xmlns="http://www.w3.org/2000/svg">
<path d="M26.8496 51.8601C41.209 51.8601 52.8496 40.2822 52.8496 26.0001C52.8496 11.7181 41.209 0.140137 26.8496 0.140137C12.4902 0.140137 0.849609 11.7181 0.849609 26.0001C0.849609 40.2822 12.4902 51.8601 26.8496 51.8601Z" fill="black"/>
<path d="M22.4805 25.674L30.0977 17.84C30.245 17.6926 30.3622 17.5181 30.4434 17.3261C30.6033 16.9346 30.6073 16.4967 30.4551 16.1021C30.3764 15.9088 30.2611 15.7325 30.1152 15.5831C29.9741 15.4346 29.8039 15.3168 29.6152 15.2371C29.4268 15.1578 29.224 15.1178 29.0195 15.1197C28.8151 15.1216 28.6128 15.1653 28.4258 15.2481C28.2373 15.3322 28.0674 15.4529 27.9258 15.6031L19.2266 24.5561C18.9358 24.8562 18.7734 25.2577 18.7734 25.6756C18.7734 26.0935 18.9358 26.495 19.2266 26.7951L27.9258 35.7481C28.0672 35.8985 28.2372 36.0192 28.4258 36.1031C28.7084 36.2275 29.0233 36.262 29.3262 36.2018C29.629 36.1417 29.9055 35.9899 30.1191 35.767C30.2651 35.6173 30.3804 35.4407 30.459 35.247C30.6114 34.8524 30.6073 34.4145 30.4473 34.023C30.3663 33.8309 30.2491 33.6564 30.1016 33.5091L22.4805 25.674Z" fill="white"/>
</svg>
