<svg width="52" height="53" viewBox="0 0 52 53" fill="none" xmlns="http://www.w3.org/2000/svg">
<path d="M25.9799 52.3499C40.2564 52.3499 51.8299 40.7765 51.8299 26.4999C51.8299 12.2233 40.2564 0.649902 25.9799 0.649902C11.7033 0.649902 0.129883 12.2233 0.129883 26.4999C0.129883 40.7765 11.7033 52.3499 25.9799 52.3499Z" fill="#E5E5E5"/>
<path d="M30.345 26.1762L22.732 18.3892C22.5834 18.2445 22.4661 18.0709 22.387 17.8792C22.3065 17.6869 22.2644 17.4806 22.263 17.2721C22.2588 17.0627 22.2979 16.8547 22.378 16.6612C22.4529 16.4686 22.5659 16.2932 22.7103 16.1454C22.8546 15.9976 23.0274 15.8806 23.2181 15.8012C23.4082 15.7222 23.6123 15.682 23.8182 15.6831C24.0222 15.6854 24.2235 15.7293 24.41 15.8122C24.5986 15.8947 24.7686 16.0144 24.91 16.1641L33.6102 25.0641C33.8989 25.3625 34.0601 25.7615 34.0601 26.1767C34.0601 26.5918 33.8989 26.9907 33.6102 27.2891L24.91 36.1891C24.7686 36.339 24.5986 36.4591 24.41 36.5421C24.2234 36.6246 24.0221 36.6678 23.8182 36.6691C23.6123 36.6715 23.408 36.6317 23.2181 36.5521C23.0274 36.4727 22.8546 36.3557 22.7103 36.2079C22.5659 36.0601 22.4529 35.8847 22.378 35.6922C22.298 35.4989 22.2589 35.2913 22.263 35.0822C22.2644 34.8737 22.3065 34.6674 22.387 34.4751C22.4659 34.283 22.5833 34.1091 22.732 33.9641L30.345 26.1762Z" fill="black"/>
</svg>
