<svg width="53" height="52" viewBox="0 0 53 52" fill="none" xmlns="http://www.w3.org/2000/svg">
<path d="M26.8501 51.8601C41.2095 51.8601 52.8501 40.2822 52.8501 26.0001C52.8501 11.7181 41.2095 0.140137 26.8501 0.140137C12.4907 0.140137 0.850098 11.7181 0.850098 26.0001C0.850098 40.2822 12.4907 51.8601 26.8501 51.8601Z" fill="white"/>
<path d="M22.481 25.6739L30.0981 17.8399C30.2462 17.6927 30.3635 17.518 30.4438 17.3253C30.5229 17.1312 30.5644 16.9235 30.5659 16.7139C30.5696 16.5042 30.5318 16.296 30.4541 16.1011C30.3769 15.9082 30.2632 15.7319 30.1191 15.5821C29.9748 15.434 29.8021 15.3159 29.6118 15.2349C29.4232 15.1555 29.2203 15.1158 29.0156 15.1177C28.811 15.1196 28.609 15.1632 28.4219 15.2462C28.2334 15.3298 28.0634 15.4502 27.9219 15.6002L19.2222 24.5543C18.9329 24.855 18.771 25.2557 18.771 25.6729C18.771 26.0902 18.9329 26.4914 19.2222 26.7921L27.9219 35.7462C28.0632 35.8965 28.2332 36.0168 28.4219 36.1002C28.6089 36.1833 28.8114 36.2269 29.0161 36.2281C29.222 36.2307 29.4264 36.1907 29.6162 36.1109C29.8064 36.0303 29.9786 35.913 30.123 35.7652C30.2672 35.6151 30.3809 35.4385 30.458 35.2452C30.5358 35.05 30.5737 34.841 30.5698 34.6309C30.5683 34.4217 30.5273 34.2148 30.4482 34.0211C30.3679 33.8286 30.2501 33.6538 30.1021 33.5069L22.481 25.6739Z" fill="black"/>
</svg>
