<svg width="144" height="145" viewBox="0 0 144 145" fill="none" xmlns="http://www.w3.org/2000/svg">
<mask id="mask0_3_4325" style="mask-type:luminance" maskUnits="userSpaceOnUse" x="0" y="-1" width="145" height="146">
<path d="M144.001 -0.000976562H0V145H144.001V-0.000976562Z" fill="white"/>
</mask>
<g mask="url(#mask0_3_4325)">
<path d="M94.4399 79.5262L100.507 90.0142H47.0389L48.9469 86.7222C47.4895 86.647 46.0401 86.4585 44.6119 86.1582L40.0349 94.0472H107.512L97.4649 76.6992C96.5735 77.7584 95.5582 78.7069 94.4409 79.5242" fill="#0047BA"/>
<path d="M46.3349 83.6906C47.7836 83.9698 49.248 84.1605 50.7199 84.2616C51.2389 84.2956 52.4799 84.3116 53.9639 84.3116C55.9849 84.3116 58.4719 84.2776 60.2509 84.1396C62.5799 83.9856 65.8439 83.6226 67.0349 83.5186C71.6594 83.0872 76.2472 82.3276 80.7639 81.2456C82.6147 80.7854 84.4372 80.2177 86.2219 79.5456C88.5073 78.7204 90.6865 77.6267 92.7139 76.2876C92.7329 76.2716 92.7329 76.2716 92.7489 76.2716C93.0599 76.0646 93.3489 75.8415 93.6289 75.6166C93.8209 75.4626 94.0089 75.3066 94.1819 75.1526C95.1042 74.3937 95.8872 73.4801 96.4959 72.4526C97.1867 71.2973 97.4898 69.9514 97.3609 68.6116C97.364 68.5357 97.3576 68.4598 97.3419 68.3856C97.1896 67.0296 96.5499 65.7752 95.5419 64.8556C95.4189 64.7366 95.2839 64.6146 95.1619 64.5106C94.5698 64.0362 93.9203 63.6381 93.2289 63.3256C92.4413 62.9549 91.6203 62.6599 90.7769 62.4446C90.7419 62.4286 90.7239 62.4286 90.6889 62.4106C88.9943 62.0014 87.267 61.7424 85.5269 61.6366C84.6119 61.6026 83.7129 61.6026 82.8859 61.5676H82.5559C81.7979 61.5676 80.7559 61.6366 79.5689 61.7586C75.3219 62.1696 69.2099 63.1696 67.3969 63.4796C67.0509 63.5296 66.8629 63.5646 66.8629 63.5646L66.6369 64.7526L63.8619 79.4736C62.4786 79.6462 61.1489 79.7832 59.8729 79.8846C59.5619 79.9036 59.2509 79.9376 58.9389 79.9376C58.5619 79.9716 58.1809 79.9876 57.8169 80.0226C56.6949 80.0756 55.6069 80.1106 54.5879 80.1106C54.0879 80.1106 53.6039 80.0916 53.1389 80.0916C53.0389 80.0916 52.9129 80.0756 52.8089 80.0756C51.406 80.0311 50.0062 79.916 48.6149 79.7306C48.5149 79.7146 48.4079 79.6966 48.3039 79.6806C46.8947 79.5035 45.5099 79.1681 44.1759 78.6806C44.0909 78.6466 44.0219 78.6116 43.9529 78.5806C42.5349 78.0126 41.6739 77.2886 41.4819 76.4806C41.1549 75.1196 42.7819 72.2806 48.4769 68.7646C51.2809 67.0648 54.2124 65.5847 57.2449 64.3376L56.8929 64.9456L49.8229 77.1576C50.7287 77.3371 51.6506 77.4232 52.5739 77.4146C53.2059 77.4146 53.8189 77.3985 54.3849 77.3675L62.2629 63.7346L62.8129 62.7816L63.9949 60.7346L65.8999 57.4536L73.7799 43.8356L79.9449 54.4996L82.5319 58.6636C83.9763 58.53 85.4285 58.5026 86.8769 58.5816C88.1629 58.5036 89.1939 58.5376 90.3509 58.5376C98.0189 58.5376 102.791 60.0866 103.303 62.1276C103.624 63.4196 103.577 64.9936 100.876 67.1476C101.255 69.0174 100.892 70.9615 99.8639 72.5686C105.252 68.9786 108.364 64.9936 107.393 61.1116C105.944 55.2986 96.2929 53.5866 84.6419 54.5776L84.3239 54.0136L73.7799 35.7686L60.6419 58.4626L55.1719 60.6226C52.0983 61.9376 49.1119 63.4477 46.2309 65.1436C37.6639 70.4296 36.6799 74.7886 37.3529 77.4906C37.9059 79.6906 39.6159 81.3126 42.1529 82.4316C43.4961 83.003 44.8983 83.4245 46.3339 83.6886M73.9999 65.6776C76.3141 65.2058 78.6674 64.9517 81.0289 64.9186C81.2679 64.9186 81.5099 64.9186 81.7519 64.9376C83.9636 64.8838 86.1462 65.4509 88.0519 66.5746C89.1739 67.3486 90.1079 68.1395 90.1079 69.8106C90.0799 70.549 89.8203 71.2598 89.3659 71.8426C89.0246 72.3684 88.618 72.8489 88.1559 73.2726C85.1699 76.1496 76.9999 78.2316 71.9249 78.5766L73.9999 65.6776Z" fill="#0047BA"/>
</g>
<path d="M111.706 68.2754C110.856 68.2754 110.13 68.5781 109.528 69.1836C108.929 69.7858 108.63 70.5133 108.63 71.3662C108.63 72.2256 108.927 72.958 109.523 73.5635C110.122 74.1689 110.85 74.4717 111.706 74.4717C112.562 74.4717 113.289 74.1689 113.888 73.5635C114.487 72.958 114.787 72.2256 114.787 71.3662C114.787 70.5133 114.487 69.7858 113.888 69.1836C113.286 68.5781 112.559 68.2754 111.706 68.2754ZM115.295 71.3662C115.295 72.359 114.945 73.207 114.245 73.9102C113.545 74.6133 112.699 74.9648 111.706 74.9648C110.713 74.9648 109.868 74.6133 109.172 73.9102C108.478 73.2103 108.132 72.3623 108.132 71.3662C108.132 70.3799 108.482 69.5368 109.181 68.8369C109.878 68.1403 110.719 67.792 111.706 67.792C112.699 67.792 113.545 68.1403 114.245 68.8369C114.945 69.5335 115.295 70.3766 115.295 71.3662ZM112.643 70.585C112.643 70.2985 112.555 70.1064 112.38 70.0088C112.207 69.9111 111.929 69.8623 111.545 69.8623H110.954V71.2881H111.579C111.872 71.2881 112.092 71.2588 112.238 71.2002C112.508 71.0928 112.643 70.8877 112.643 70.585ZM111.637 69.3887C112.126 69.3887 112.484 69.4359 112.712 69.5303C113.119 69.6995 113.322 70.0316 113.322 70.5264C113.322 70.8779 113.193 71.1367 112.936 71.3027C112.8 71.3906 112.609 71.4541 112.365 71.4932C112.674 71.542 112.9 71.6706 113.044 71.8789C113.187 72.0872 113.259 72.2907 113.259 72.4893V72.7773C113.259 72.8685 113.262 72.9661 113.268 73.0703C113.275 73.1745 113.286 73.2428 113.302 73.2754L113.327 73.3242H112.677C112.674 73.3112 112.671 73.2982 112.668 73.2852C112.664 73.2721 112.661 73.2575 112.658 73.2412L112.643 73.1143V72.8018C112.643 72.346 112.52 72.0449 112.272 71.8984C112.126 71.8138 111.869 71.7715 111.501 71.7715H110.954V73.3242H110.26V69.3887H111.637Z" fill="#0047BA"/>
<mask id="mask1_3_4325" style="mask-type:luminance" maskUnits="userSpaceOnUse" x="0" y="-1" width="145" height="146">
<path d="M144.001 -0.000976562H0V145H144.001V-0.000976562Z" fill="white"/>
</mask>
<g mask="url(#mask1_3_4325)">
<path d="M4.2469 45.2658L11.3709 48.3658L14.2499 41.7998L16.6079 42.8248L12.4329 52.3408L2.9519 48.2228L4.2469 45.2658Z" fill="#1D1D1B"/>
<path d="M22.7131 30.984L18.8681 35.913L19.7901 37.8L17.7691 40.393L12.8081 29.965L15.3831 26.665L26.9421 28.631L24.8001 31.376L22.7131 30.984ZM15.8441 29.705L17.7301 33.577L20.1301 30.501L15.8441 29.705Z" fill="#1D1D1B"/>
<path d="M39.9099 19.2701C35.0749 22.0861 32.3809 20.0481 31.3339 18.2701L31.1389 17.9351C30.1199 16.2001 29.4659 13.0121 34.5999 10.0211L35.1189 9.72108C40.1079 6.81408 42.2519 8.46408 43.0099 9.63908L43.0159 9.65208L40.0419 11.3861C39.8529 11.2261 38.9009 10.3511 36.1189 11.9721C33.3999 13.5591 33.4189 15.1201 34.1379 16.3491L34.2129 16.4811C34.8949 17.6381 36.5299 18.3371 38.9879 16.9041C41.6379 15.3581 41.8459 13.8781 41.6979 13.6271L41.6849 13.6021L38.1849 15.6431L37.1949 13.9591L43.4749 10.3001L46.3999 15.2791L44.7209 16.2571C44.3742 15.8222 43.9797 15.4278 43.5449 15.0811C43.4219 15.7461 42.9159 17.5141 40.1589 19.1231L39.9099 19.2701Z" fill="#1D1D1B"/>
<path d="M58.5741 9.76077L52.5001 11.3278L52.0691 13.3818L48.8811 14.2068L51.3501 2.93177L55.4181 1.88477L63.3681 10.4728L59.9921 11.3448L58.5741 9.76077ZM53.9211 4.57077L53.0311 8.78777L56.8311 7.80977L53.9211 4.57077Z" fill="#1D1D1B"/>
<path d="M69.435 10.306L66.2 10.278L66.295 0L74.623 0.072C78.065 0.1 79.1 1.3 79.087 2.778V2.944C79.0584 3.4794 78.8521 3.98999 78.5007 4.39497C78.1494 4.79995 77.673 5.0762 77.147 5.18C77.6957 5.2906 78.1889 5.58847 78.5423 6.02262C78.8956 6.45678 79.0871 7.00024 79.084 7.56L79.071 9.065C79.0166 9.49373 79.0795 9.92918 79.253 10.325V10.394L75.965 10.366C75.8396 10.1732 75.7871 9.94202 75.817 9.714L75.83 8.526C75.839 7.272 75.289 6.711 73.692 6.698L69.467 6.66L69.435 10.306ZM69.488 4.38L74.388 4.424C75.319 4.43 75.696 3.991 75.702 3.424V3.411C75.708 2.872 75.353 2.411 74.402 2.405L69.502 2.361L69.488 4.38Z" fill="#1D1D1B"/>
<path d="M92.268 11.6447L86.235 9.96067L84.83 11.5227L81.658 10.6387L89.476 2.13867L93.513 3.26467L96.05 14.6517L92.693 13.7177L92.268 11.6447ZM90.868 4.83467L87.976 8.03467L91.748 9.08467L90.868 4.83467Z" fill="#1D1D1B"/>
<path d="M107.072 8.92352L109.351 17.8625L112.718 12.3255L115.453 13.9715L110.099 22.7715L107.364 21.1225L104.909 11.6755L101.363 17.5075L98.6279 15.8615L103.982 7.06152L107.072 8.92352Z" fill="#1D1D1B"/>
<path d="M121.492 22.6932L118.402 19.5142L120.159 17.8242L128.622 26.5242L126.868 28.2242L123.768 25.0322L118.097 30.4972L115.827 28.1612L121.492 22.6932Z" fill="#1D1D1B"/>
<path d="M124.95 39.3813L123.15 36.7003L131.745 30.9723L133.545 33.6503L124.95 39.3813ZM134.828 30.5303L136.686 33.2893L134.14 33.2393L132.4 30.6523L134.828 30.5303Z" fill="#1D1D1B"/>
<path d="M132.659 50.6002L130.226 44.8462L128.126 44.7212L126.85 41.6982L138.409 42.4982L140.037 46.3512L132.649 55.4222L131.297 52.2222L132.659 50.6002ZM137.148 45.2672L132.825 45.0002L134.35 48.6002L137.148 45.2672Z" fill="#1D1D1B"/>
<path d="M10.028 81.126L11.688 87.742C13.134 93.527 10.959 95.408 8.708 95.963L8.302 96.063C6.145 96.596 3.121 96.079 1.662 90.241L0 83.616L10.028 81.126ZM3.2 86.146L4.014 89.391C4.9 92.934 6.58 93.016 7.6 92.762L7.679 92.743C8.704 92.486 10.15 91.686 9.251 88.09L8.437 84.842L3.2 86.146Z" fill="#1D1D1B"/>
<path d="M19.1559 105.8L17.0689 106.866L13.5569 100.05L12.1959 100.743L15.6259 107.4L13.5259 108.472L10.0999 101.81L8.5909 102.581L12.1649 109.52L10.0269 110.611L4.9939 100.844L14.1939 96.1436L19.1559 105.8Z" fill="#1D1D1B"/>
<path d="M24.42 116.242L21.327 113.063L23.084 111.373L31.55 120.073L29.793 121.766L26.693 118.574L21.025 124.039L18.749 121.7L24.42 116.242Z" fill="#1D1D1B"/>
<path d="M32.39 133.334C27.734 130.34 28.89 126.897 29.947 125.27L32.669 121.07L35.4 122.83L32.784 126.865C32.058 127.981 31.662 129.687 34.032 131.211C36.368 132.711 37.779 131.659 38.506 130.546L41.125 126.511L43.844 128.261L41.118 132.461C40.065 134.088 37.258 136.471 32.809 133.612L32.39 133.334Z" fill="#1D1D1B"/>
<path d="M50.5931 141.66L47.5181 140.647L50.7751 130.871L53.8461 131.884L50.5931 141.66Z" fill="#1D1D1B"/>
<path d="M59.48 133.36L65.032 140.747L66.007 134.347L69.17 134.824L67.619 145L64.456 144.523L58.546 136.731L57.518 143.475L54.356 143L55.906 132.822L59.48 133.36Z" fill="#1D1D1B"/>
<path d="M76.393 144.7L70.134 134.914L73.793 134.594L78.248 141.802L81.148 133.954L84.502 133.666L80.412 144.352L76.393 144.7Z" fill="#1D1D1B"/>
<path d="M95.923 130.01L96.63 132.239L89.289 134.547L89.749 136L96.92 133.749L97.63 135.988L90.462 138.242L90.971 139.85L98.444 137.502L99.17 139.785L88.648 143.093L85.533 133.276L95.923 130.01Z" fill="#1D1D1B"/>
<path d="M105.7 136.592L102.9 138.216L97.6909 129.316L104.896 125.136C107.873 123.408 109.376 123.913 110.127 125.189L110.209 125.333C110.46 125.806 110.545 126.349 110.452 126.877C110.358 127.404 110.091 127.885 109.693 128.243C110.223 128.06 110.801 128.065 111.328 128.258C111.855 128.451 112.299 128.82 112.585 129.303L113.346 130.603C113.767 131.321 113.984 131.503 114.154 131.594L114.189 131.654L111.344 133.306C111.196 133.246 111.071 133.146 110.882 132.823L110.282 131.791C109.644 130.703 108.882 130.505 107.503 131.305L103.85 133.425L105.7 136.592ZM102.695 131.462L106.937 129C107.737 128.533 107.837 127.962 107.553 127.473L107.547 127.464C107.274 126.997 106.73 126.784 105.912 127.257L101.674 129.715L102.695 131.462Z" fill="#1D1D1B"/>
<path d="M121.329 125.684C117.39 129.39 115.329 128.126 114.397 127.142L114.297 127.032L116.752 124.724C117.211 125.147 118.17 125.633 120.109 123.808L120.25 123.676C122.231 121.814 122.08 121.215 121.696 120.81C121.287 120.377 120.796 120.327 119.014 121.91L117.69 123.098C114.804 125.657 113.05 125.519 111.94 124.352L111.858 124.261C110.799 123.145 110.358 121.351 113.782 118.134L114.482 117.479C118.038 114.134 120.018 114.61 121.082 115.739L121.182 115.839L118.736 118.139C118.418 117.907 117.686 117.434 115.715 119.283L115.552 119.437C113.735 121.146 113.908 121.594 114.216 121.914C114.524 122.234 114.999 122.337 116.564 120.923L117.847 119.757C120.72 117.148 122.512 116.757 123.924 118.246L124.056 118.387C125.232 119.622 125.807 121.479 122.028 125.031L121.329 125.684Z" fill="#1D1D1B"/>
<path d="M130.3 115.441L128.319 117.993L120.126 111.706L122.107 109.151L130.3 115.441Z" fill="#1D1D1B"/>
<path d="M124.391 100.218L125.931 97.2745L127.107 99.5195L125.664 102.281L124.391 100.218ZM126.985 100.918C129.985 95.1775 133.235 96.0025 134.873 96.8515L135.244 97.0425C136.857 97.8765 139.482 100.077 136.476 105.827L136.203 106.357C133.182 112.136 129.872 111.248 128.259 110.411L127.888 110.22C126.25 109.373 123.694 107.226 126.709 101.444L126.985 100.918ZM133.395 99.8865C132.348 99.3445 130.679 99.2465 129.063 102.338C127.422 105.477 128.488 106.731 129.538 107.273L129.686 107.348C130.733 107.89 132.486 108.038 134.103 104.948C135.703 101.882 134.628 100.53 133.569 99.9815L133.395 99.8865Z" fill="#1D1D1B"/>
<path d="M131.719 89.6427L139.544 84.6887L133.2 83.2367L133.917 80.1367L144 82.4407L143.283 85.5407L135.028 90.8207L141.712 92.3507L140.995 95.4507L130.91 93.1427L131.719 89.6427Z" fill="#1D1D1B"/>
</g>
</svg>
