<svg width="24" height="17" viewBox="0 0 24 17" fill="none" xmlns="http://www.w3.org/2000/svg">
<path d="M2.43195 0.706055H10.5729C10.7867 0.706055 10.9984 0.748164 11.1959 0.829979C11.3934 0.911794 11.5729 1.03171 11.7241 1.18288C11.8753 1.33406 11.9952 1.51353 12.077 1.71104C12.1588 1.90856 12.2009 2.12026 12.2009 2.33405C12.2009 2.54785 12.1588 2.75954 12.077 2.95706C11.9952 3.15458 11.8753 3.33405 11.7241 3.48522C11.5729 3.6364 11.3934 3.75632 11.1959 3.83813C10.9984 3.91995 10.7867 3.96206 10.5729 3.96206H2.43195C2.00017 3.96206 1.58607 3.79053 1.28076 3.48522C0.975453 3.17991 0.803955 2.76583 0.803955 2.33405C0.803955 1.90228 0.975453 1.48819 1.28076 1.18288C1.58607 0.877575 2.00017 0.706055 2.43195 0.706055ZM13.8319 13.7311H21.973C22.4047 13.7311 22.8188 13.9026 23.1241 14.2079C23.4294 14.5132 23.601 14.9273 23.601 15.3591C23.601 15.7908 23.4294 16.2049 23.1241 16.5102C22.8188 16.8155 22.4047 16.9871 21.973 16.9871H13.8319C13.4001 16.9871 12.9861 16.8155 12.6808 16.5102C12.3755 16.2049 12.2039 15.7908 12.2039 15.3591C12.2039 14.9273 12.3755 14.5132 12.6808 14.2079C12.9861 13.9026 13.4001 13.7311 13.8319 13.7311ZM2.43195 7.21906H21.9689C22.1827 7.21906 22.3944 7.26116 22.5919 7.34298C22.7894 7.42479 22.9689 7.54471 23.1201 7.69588C23.2713 7.84706 23.3912 8.02653 23.473 8.22404C23.5548 8.42156 23.5969 8.63326 23.5969 8.84705C23.5969 9.06085 23.5548 9.27254 23.473 9.47006C23.3912 9.66758 23.2713 9.84705 23.1201 9.99822C22.9689 10.1494 22.7894 10.2693 22.5919 10.3511C22.3944 10.4329 22.1827 10.4751 21.9689 10.4751H2.43195C2.21815 10.4751 2.00648 10.4329 1.80896 10.3511C1.61144 10.2693 1.43194 10.1494 1.28076 9.99822C1.12959 9.84705 1.00967 9.66758 0.927856 9.47006C0.846042 9.27254 0.803955 9.06085 0.803955 8.84705C0.803955 8.63326 0.846042 8.42156 0.927856 8.22404C1.00967 8.02653 1.12959 7.84706 1.28076 7.69588C1.43194 7.54471 1.61144 7.42479 1.80896 7.34298C2.00648 7.26116 2.21815 7.21906 2.43195 7.21906Z" fill="black"/>
</svg>
